<?xml version="1.0" encoding="utf-8"?>
<svg width="70px" height="70px" viewbox="0 0 70 70" version="1.1" xmlns:xlink="http://www.w3.org/1999/xlink" xmlns="http://www.w3.org/2000/svg">
  <defs>
    <filter id="filter_1">
      <feColorMatrix in="SourceGraphic" type="matrix" values="0 0 0 0 0.38431373 0 0 0 0 0 0 0 0 0 0.93333334 0 0 0 1 0" />
    </filter>
    <path d="M0 0L56 0L56 56L0 56L0 0Z" transform="matrix(1 -1.1073393E-08 1.1073393E-08 1 1.1444092E-05 0)" id="path_1" />
    <clipPath id="mask_1">
      <use xlink:href="#path_1" />
    </clipPath>
  </defs>
  <g id="Settings-icon" transform="matrix(0.9563048 -0.2923717 0.2923717 0.9563048 0 16.372803)" filter="url(#filter_1)">
    <path d="M0 0L56 0L56 56L0 56L0 0Z" transform="matrix(1 -1.1073393E-08 1.1073393E-08 1 1.1444092E-05 0)" id="Background" fill="none" fill-rule="evenodd" stroke="none" />
    <g clip-path="url(#mask_1)">
      <path d="M17.4863 0L16.3424 5.88802C14.4194 6.61326 12.6535 7.62984 11.1061 8.90039L5.45052 6.94987L0 16.3835L4.52995 20.321C4.35581 21.3902 4.26563 22.381 4.26563 23.3333C4.26563 24.2871 4.35851 25.2761 4.52995 26.3457L4.52995 26.3503L0 30.2878L5.45052 39.7168L11.1016 37.7708C12.649 39.0421 14.419 40.053 16.3424 40.7787L17.4863 46.6667L28.3783 46.6667L29.5221 40.7787C31.4465 40.0529 33.2104 39.038 34.7585 37.7663L40.4141 39.7168L45.86 30.2878L41.3346 26.3457C41.5088 25.2765 41.599 24.2857 41.599 23.3333C41.599 22.3824 41.5083 21.3929 41.3346 20.3255L41.3346 20.321L45.8646 16.3789L40.4141 6.94987L34.763 8.89584C33.2155 7.62459 31.4456 6.61368 29.5221 5.88802L28.3783 0L17.4863 0L17.4863 0ZM21.3327 4.66669L24.5319 4.66669L25.4388 9.33335L27.8724 10.2539C29.3393 10.8068 30.6572 11.5658 31.8008 12.5052L33.8151 14.155L38.2995 12.6146L39.8991 15.3809L36.3171 18.4981L36.7272 21.0638L36.7272 21.0684C36.8699 21.9432 36.9323 22.6771 36.9323 23.3334C36.9323 23.9896 36.8699 24.7234 36.7272 25.5983L36.3125 28.1641L39.8945 31.2813L38.2949 34.0521L33.8151 32.5072L31.7962 34.1615C30.6526 35.1009 29.3393 35.8599 27.8724 36.4128L27.8678 36.4128L25.4342 37.3334L24.5273 42L21.3327 42L20.4258 37.3334L17.9922 36.4128C16.5253 35.8599 15.2074 35.1009 14.0638 34.1615L12.0495 32.5117L7.56511 34.0521L5.9655 31.2858L9.55208 28.1641L9.13737 25.6074L9.13737 25.6029C8.99674 24.7242 8.93229 23.9883 8.93229 23.3334C8.93229 22.6771 8.99469 21.9433 9.13737 21.0684L9.55208 18.5026L5.9655 15.3854L7.56511 12.6146L12.0495 14.1595L14.0638 12.5052C15.2074 11.5658 16.5253 10.8068 17.9922 10.2539L20.4258 9.33335L21.3327 4.66669L21.3327 4.66669ZM22.9323 14.0001C17.807 14.0001 13.5989 18.2082 13.5989 23.3334C13.5989 28.4586 17.807 32.6667 22.9323 32.6667C28.0575 32.6667 32.2656 28.4586 32.2656 23.3334C32.2656 18.2082 28.0575 14.0001 22.9323 14.0001L22.9323 14.0001ZM22.9323 18.6668C25.5257 18.6668 27.599 20.74 27.599 23.3335C27.599 25.9269 25.5257 28.0001 22.9323 28.0001C20.3388 28.0001 18.2656 25.9269 18.2656 23.3335C18.2656 20.74 20.3388 18.6668 22.9323 18.6668L22.9323 18.6668Z" transform="matrix(1 -1.1073393E-08 1.1073393E-08 1 5.0682983 4.665344)" id="Shape" fill="#FFFFFF" fill-rule="evenodd" stroke="none" />
    </g>
  </g>
</svg>